<?xml version="1.0" encoding="UTF-8" standalone="no"?>
<!-- Created with Inkscape (http://www.inkscape.org/) -->
<svg
   xmlns:dc="http://purl.org/dc/elements/1.1/"
   xmlns:cc="http://creativecommons.org/ns#"
   xmlns:rdf="http://www.w3.org/1999/02/22-rdf-syntax-ns#"
   xmlns:svg="http://www.w3.org/2000/svg"
   xmlns="http://www.w3.org/2000/svg"
   xmlns:sodipodi="http://sodipodi.sourceforge.net/DTD/sodipodi-0.dtd"
   xmlns:inkscape="http://www.inkscape.org/namespaces/inkscape"
   width="993.44617"
   height="993.44617"
   id="svg2"
   sodipodi:version="0.32"
   inkscape:version="0.46"
   sodipodi:modified="true"
   inkscape:export-filename="logo2"
   inkscape:export-xdpi="90"
   inkscape:export-ydpi="90"
   version="1.0"
   sodipodi:docname="friedenstaube_wb.svg"
   inkscape:output_extension="org.inkscape.output.svg.inkscape">
  <defs
     id="defs4">
    <inkscape:perspective
       sodipodi:type="inkscape:persp3d"
       inkscape:vp_x="0 : 372.04724 : 1"
       inkscape:vp_y="0 : 1000 : 0"
       inkscape:vp_z="1052.3622 : 372.04724 : 1"
       inkscape:persp3d-origin="526.18109 : 248.03149 : 1"
       id="perspective8" />
    <inkscape:perspective
       id="perspective2490"
       inkscape:persp3d-origin="372.04724 : 350.78739 : 1"
       inkscape:vp_z="744.09448 : 526.18109 : 1"
       inkscape:vp_y="0 : 1000 : 0"
       inkscape:vp_x="0 : 526.18109 : 1"
       sodipodi:type="inkscape:persp3d" />
  </defs>
  <sodipodi:namedview
     id="base"
     pagecolor="#ffffff"
     bordercolor="#666666"
     borderopacity="1.0"
     inkscape:pageopacity="0.0"
     inkscape:pageshadow="2"
     inkscape:zoom="0.49222597"
     inkscape:cx="411.16921"
     inkscape:cy="506.03005"
     inkscape:document-units="px"
     inkscape:current-layer="layer1"
     width="1052.3622px"
     height="744.09448px"
     inkscape:window-width="1024"
     inkscape:window-height="703"
     inkscape:window-x="0"
     inkscape:window-y="0"
     showgrid="false" />
  <metadata
     id="metadata7">
    <rdf:RDF>
      <cc:Work
         rdf:about="">
        <dc:format>image/svg+xml</dc:format>
        <dc:type
           rdf:resource="http://purl.org/dc/dcmitype/StillImage" />
      </cc:Work>
    </rdf:RDF>
  </metadata>
  <g
     inkscape:label="Ebene 1"
     inkscape:groupmode="layer"
     id="layer1"
     transform="translate(1147.5468,360.34427)">
    <path
       sodipodi:type="arc"
       style="fill:#0667db;fill-opacity:1;fill-rule:evenodd;stroke:none;stroke-width:4;stroke-linecap:round;stroke-linejoin:round;stroke-miterlimit:3;stroke-dasharray:none;stroke-opacity:1"
       id="path2498"
       sodipodi:cx="-256.99579"
       sodipodi:cy="572.42535"
       sodipodi:rx="204.17451"
       sodipodi:ry="204.17451"
       d="M -52.821274,572.42535 A 204.17451,204.17451 0 1 1 -461.1703,572.42535 A 204.17451,204.17451 0 1 1 -52.821274,572.42535 z"
       transform="matrix(2.4328358,0,0,2.4328358,-25.595178,-1256.2381)" />
    <path
       style="opacity:1;fill:#ffffff;fill-opacity:1"
       d="M -643.2072,580.55743 C -654.8122,577.3583 -669.65458,569.20184 -677.75302,561.57325 C -686.57488,553.26309 -695.0366,550.36713 -710.00414,550.53549 C -722.52896,550.67639 -722.52896,550.67639 -738.12974,536.9406 C -746.71011,529.38603 -756.5875,519.49978 -760.07953,514.97128 C -763.57184,510.44287 -768.36649,505.33898 -770.73484,503.62943 C -773.10311,501.91987 -780.32078,496.43805 -786.77445,491.44776 C -793.22776,486.45745 -800.31188,481.53196 -802.51683,480.50218 C -810.71803,476.67179 -824.25744,450.47157 -822.55213,441.73122 C -821.32038,435.41853 -823.95198,428.97641 -829.20363,425.44941 C -836.10816,420.81202 -834.1087,413.8022 -818.50313,387.93662 C -815.6729,383.24562 -808.3109,374.80179 -802.14297,369.17248 C -771.20042,340.93213 -772.72191,342.84013 -773.78803,333.61306 C -775.1867,321.50856 -779.2459,315.74215 -790.67171,309.62854 C -802.77883,303.15037 -813.75874,295.48555 -824.19652,286.22557 C -828.49567,282.41146 -834.76173,277.51235 -838.12091,275.33848 C -842.33338,272.61278 -845.64296,268.29567 -848.78508,261.42845 C -853.3696,251.40791 -865.35716,236.97112 -869.093,236.97112 C -874.14115,236.97112 -883.74716,223.29868 -885.74218,213.27363 C -888.32706,200.28385 -894.03202,191.23165 -904.48426,183.53419 C -909.9707,179.49397 -913.26047,175.68437 -913.91956,172.60823 C -921.97641,135.00126 -942.1,107.81011 -968.4797,98.885867 C -979.60114,95.123617 -1006.1793,75.572627 -1006.1793,71.153927 C -1006.1793,69.299517 -1016.7028,53.952227 -1025.2375,43.359997 C -1029.0171,38.668937 -1034.188,31.645737 -1036.7283,27.752917 C -1039.2685,23.859997 -1045.1292,17.405597 -1049.7524,13.409737 C -1059.0716,5.3549568 -1062.7605,-1.7970032 -1062.7605,-11.810043 C -1062.7605,-19.355223 -1065.8134,-29.368083 -1071.9993,-42.111056 C -1084.9724,-68.83544 -1076.5623,-99.076439 -1056.1571,-99.076439 C -1045.8522,-99.076439 -1017.2957,-83.808484 -1010.2189,-74.51518 C -1008.0031,-71.605306 -1002.0124,-63.851196 -996.90632,-57.283655 C -991.80026,-50.716285 -983.46162,-36.899078 -978.37635,-26.578783 C -973.2908,-16.258563 -966.50075,-3.5990032 -963.28743,1.5535968 C -958.79335,8.7598868 -957.16406,13.545587 -956.22763,22.290697 C -953.15329,50.997727 -923.90702,80.812167 -889.45779,90.357627 C -876.70479,93.891317 -867.32337,98.485517 -860.04984,104.75899 C -851.23594,112.36103 -817.7057,121.24334 -805.74426,119.14473 C -795.97596,117.43084 -789.1776,109.0378 -790.34312,100.13073 C -792.00098,87.460507 -802.51567,80.094627 -821.16168,78.541137 C -837.65514,77.166877 -839.01966,73.597207 -827.68305,61.479237 C -817.70282,50.811107 -813.45871,44.142797 -810.72679,34.838007 C -801.67341,4.0022968 -762.66252,-9.0746932 -728.84147,7.3890268 C -714.22123,14.506047 -707.72571,21.015287 -687.26991,49.047607 C -672.45285,69.352927 -670.38633,73.216117 -666.01915,88.775417 C -663.29589,98.477287 -654.86688,108.60303 -642.72596,116.75721 C -627.16035,127.21172 -575.336,108.5264 -556.21617,85.565967 C -546.80907,74.269397 -538.43058,62.309837 -532.62289,51.889057 C -524.51804,37.346437 -511.76585,22.335987 -498.87839,12.168957 C -480.22839,-2.5442832 -475.97933,-5.6211632 -457.00933,-18.150033 C -447.39881,-24.497433 -431.29818,-35.236328 -421.23002,-42.014449 C -401.83972,-55.068386 -382.72042,-65.637118 -374.91533,-67.616149 C -372.32449,-68.273061 -369.81895,-69.840537 -369.34766,-71.09951 C -368.87656,-72.358379 -364.63092,-75.249072 -359.91319,-77.523358 C -355.19554,-79.797643 -348.19674,-84.617865 -344.3604,-88.235148 C -328.4989,-103.19021 -323.55098,-106.29319 -317.26603,-105.22709 C -314.03762,-104.67943 -305.3364,-104.22297 -297.93022,-104.21267 C -284.46437,-104.19388 -284.46437,-104.19388 -282.51831,-97.53632 C -281.04229,-92.485929 -278.66868,-89.620895 -272.68603,-85.66806 C -251.47527,-71.653576 -243.03235,-59.723128 -230.99952,-26.760593 C -214.5206,18.381167 -215.569,36.411467 -234.85909,39.620257 C -263.61827,44.404057 -275.02266,74.093797 -252.02347,84.304917 C -238.33784,90.380947 -234.76519,99.636927 -242.31029,109.46924 C -247.85636,116.6964 -253.53665,129.92402 -254.70541,138.3327 C -255.98534,147.54278 -261.3495,155.24369 -273.3,165.02673 C -290.06946,178.75473 -306.97846,199.06782 -333.66559,237.54524 C -341.28787,248.53528 -351.13499,257.21255 -360.68107,261.35164 C -363.77872,262.69464 -367.73951,265.4347 -369.48321,267.44057 C -371.22674,269.44645 -373.34316,271.08759 -374.18595,271.08759 C -375.88493,271.08759 -393.46121,284.40658 -401.26025,291.60402 C -404.00609,294.13803 -412.24369,301.97963 -419.56593,309.02975 C -437.95619,326.73662 -440.81164,328.01863 -459.41265,326.9198 C -469.67728,326.31342 -477.93215,324.6871 -485.29983,321.8197 C -496.4258,317.48958 -535.33176,313.84824 -539.55173,316.74221 C -542.90017,319.03844 -545.20934,325.36948 -545.20934,332.25432 C -545.20934,348.66599 -527.74492,359.09537 -478.85908,371.87685 C -453.89397,378.40418 -439.6042,386.83959 -429.12177,401.23735 C -413.64065,422.50087 -413.67699,422.40436 -418.4944,429.46604 C -420.19311,431.95632 -425.49772,441.67013 -430.28251,451.05221 C -436.39204,463.03199 -441.96172,471.15744 -448.99106,478.34538 C -454.49611,483.97459 -460.8107,492.03462 -463.02371,496.25658 C -472.17289,513.71132 -477.14303,518.78087 -488.95553,522.70741 C -505.73014,528.28331 -509.07197,531.13109 -520.81001,549.85264 C -527.20684,560.05538 -533.65148,565.2744 -537.93672,563.72218 C -541.44447,562.45166 -557.72275,540.48025 -564.62584,527.69906 C -567.12507,523.07152 -569.75649,519.03382 -570.4735,518.72657 C -571.19023,518.41939 -572.57661,515.12338 -573.55416,511.40198 C -578.0757,494.19042 -598.59799,500.68532 -601.11366,520.12378 C -601.77916,525.26718 -603.98457,532.93977 -606.01439,537.17403 C -608.04423,541.4082 -610.21205,549.02251 -610.83199,554.09485 C -613.74764,577.95175 -623.56122,585.9732 -643.2072,580.55743 z M -778.5185,34.604037 C -777.84289,29.773797 -783.19061,27.642207 -786.02302,31.612927 C -787.60226,33.826567 -787.65097,35.129097 -786.22002,36.896297 C -783.54296,40.202797 -779.11739,38.885547 -778.5185,34.604037 z"
       id="path2180" />
  </g>
</svg>
